<?xml version="1.0" encoding="UTF-8" standalone="no"?>
<!-- Created with Inkscape (http://www.inkscape.org/) -->

<svg
   xmlns:dc="http://purl.org/dc/elements/1.1/"
   xmlns:cc="http://creativecommons.org/ns#"
   xmlns:rdf="http://www.w3.org/1999/02/22-rdf-syntax-ns#"
   xmlns:svg="http://www.w3.org/2000/svg"
   xmlns="http://www.w3.org/2000/svg"
   xmlns:sodipodi="http://sodipodi.sourceforge.net/DTD/sodipodi-0.dtd"
   xmlns:inkscape="http://www.inkscape.org/namespaces/inkscape"
   width="610.65173mm"
   height="367.18695mm"
   viewBox="0 0 2163.7266 1301.0561"
   id="svg2"
   version="1.1"
   inkscape:version="0.91 r13725"
   sodipodi:docname="sump-city-outlines.svg">
  <defs
     id="defs4">
    <clipPath
       clipPathUnits="userSpaceOnUse"
       id="clipPath4173">
      <rect
         style="opacity:1;fill:#000000;fill-opacity:1;stroke:none;stroke-width:2;stroke-linecap:round;stroke-miterlimit:4;stroke-dasharray:none;stroke-dashoffset:0;stroke-opacity:1"
         id="rect4175"
         width="2282.8572"
         height="1451.4286"
         x="-711.42859"
         y="1049.505" />
    </clipPath>
    <clipPath
       clipPathUnits="userSpaceOnUse"
       id="clipPath4623">
      <rect
         style="opacity:0.44800002;fill:#722980;fill-opacity:1;stroke:none;stroke-width:2;stroke-linecap:round;stroke-miterlimit:4;stroke-dasharray:none;stroke-dashoffset:0;stroke-opacity:1"
         id="rect4625"
         width="2156.9048"
         height="1298.2319"
         x="-626.22913"
         y="1208.7625" />
    </clipPath>
  </defs>
  <sodipodi:namedview
     id="base"
     pagecolor="#ffffff"
     bordercolor="#666666"
     borderopacity="1.0"
     inkscape:pageopacity="0.0"
     inkscape:pageshadow="2"
     inkscape:zoom="0.35"
     inkscape:cx="828.8818"
     inkscape:cy="765.42135"
     inkscape:document-units="px"
     inkscape:current-layer="layer1"
     showgrid="false"
     inkscape:window-width="1858"
     inkscape:window-height="1057"
     inkscape:window-x="-8"
     inkscape:window-y="-8"
     inkscape:window-maximized="1"
     fit-margin-top="0"
     fit-margin-left="0"
     fit-margin-right="0"
     fit-margin-bottom="0" />
  <metadata
     id="metadata7">
    <rdf:RDF>
      <cc:Work
         rdf:about="">
        <dc:format>image/svg+xml</dc:format>
        <dc:type
           rdf:resource="http://purl.org/dc/dcmitype/StillImage" />
        <dc:title />
      </cc:Work>
    </rdf:RDF>
  </metadata>
  <g
     inkscape:label="Layer 1"
     inkscape:groupmode="layer"
     id="layer1"
     transform="translate(544.4621,150.71927)">
    <path
       style="opacity:0.44800002;fill:none;fill-opacity:1;fill-rule:evenodd;stroke:#000000;stroke-width:1px;stroke-linecap:butt;stroke-linejoin:miter;stroke-opacity:1"
       d="m 1015.2458,-83.965949 -57.14295,122.8571 111.42865,107.142899 68.5714,-182.857199 -4.2857,-8.5714 z"
       id="Nagomi_Powerplant"
       inkscape:connector-curvature="0"
       Powerplant="" />
    <path
       style="opacity:0.44800002;fill:none;fill-opacity:1;fill-rule:evenodd;stroke:#000000;stroke-width:1px;stroke-linecap:butt;stroke-linejoin:miter;stroke-opacity:1"
       d="m 899.53145,196.03405 -72.8572,188.5714 15.7143,15.7143 -24.2857,82.8571 0,7.1429 55.7143,42.8571 38.5714,25.7143 12.8572,-4.2857 100.00005,-278.5714 -61.42865,-24.2857 10,-28.5715 z"
       id="Turbine_Halls"
       inkscape:connector-curvature="0" />
    <path
       style="opacity:0.44800002;fill:none;fill-opacity:1;fill-rule:evenodd;stroke:#000000;stroke-width:1px;stroke-linecap:butt;stroke-linejoin:miter;stroke-opacity:1"
       d="m 1316.6743,331.74835 14.2858,-4.2858 -2.8572,38.5715 -142.8571,30 80,88.5714 -34.2857,2.8571 -85.7143,-84.2857 -75.7143,24.2857 51.4286,-45.7142 -12.8572,-55.7143 45.7143,41.4285 z"
       id="The_Crossways"
       inkscape:connector-curvature="0" />
    <path
       style="opacity:0.44800002;fill:none;fill-opacity:1;fill-rule:evenodd;stroke:#000000;stroke-width:1px;stroke-linecap:butt;stroke-linejoin:miter;stroke-opacity:1"
       d="m 985.24575,476.03405 -70,148.5714 65.7143,55.7143 62.85715,-7.1429 2.8571,-12.8571 8.5715,0 25.7143,0 -2.8572,-15.7143 5.7143,-30 17.1429,-42.8571 c 0,0 22.8571,-32.8572 30,-32.8572 7.1428,0 24.2857,0 24.2857,0 l 17.1428,-15.7143 c 0,0 20,0 27.1429,2.8572 7.1428,2.8571 5.7143,2.8571 20,4.2857 14.2857,1.4286 30,1.4286 30,1.4286 l 15.7143,-15.7143 c 0,0 -15.7143,-5.7143 -21.4286,-4.2857 -5.7143,1.4285 -32.8571,1.4285 -32.8571,1.4285 0,0 -7.1429,-34.2857 -17.1429,-34.2857 -10,0 -40,10 -40,10 l -1.4286,-12.8571 18.5715,-12.8572 -60,-32.8571 c 0,0 -57.1429,14.2857 -62.8572,21.4286 -5.7143,7.1428 -24.2857,18.5714 -24.2857,18.5714 l -25.71435,-14.2857 -12.8571,-1.4286 z"
       id="The_Trash_Coast"
       inkscape:connector-curvature="0" />
    <path
       style="opacity:0.44800002;fill:none;fill-opacity:1;fill-rule:evenodd;stroke:#000000;stroke-width:1px;stroke-linecap:butt;stroke-linejoin:miter;stroke-opacity:1"
       d="m 1115.2458,107.46255 -27.1429,41.4286 c 0,0 28.5714,31.4286 21.4286,35.7143 -7.1429,4.2857 -44.2857,1.4286 -44.2857,1.4286 l -24.2857,57.1428 31.4285,-8.5714 2.8572,31.4286 84.2857,80 c 0,0 117.1428,-15.7143 124.2857,-20 7.1429,-4.2857 35.7143,-28.5715 35.7143,-28.5715 0,0 -20,-18.5714 -25.7143,-20 -5.7143,-1.4285 -37.1429,-11.4285 -37.1429,-11.4285 l -51.4285,-41.4286 c 0,0 -10,-15.7143 -14.2857,-21.4286 -4.2858,-5.7143 -25.7143,-32.8571 -25.7143,-32.8571 0,0 -12.8572,-8.5714 -15.7143,-14.2857 -2.8572,-5.7143 -2.8572,-21.4286 -2.8572,-21.4286 l -14.2857,-18.5714 z"
       id="Shady_Muck"
       inkscape:connector-curvature="0" />
    <path
       style="opacity:0.44800002;fill:none;fill-opacity:1;fill-rule:evenodd;stroke:#000000;stroke-width:1px;stroke-linecap:butt;stroke-linejoin:miter;stroke-opacity:1"
       d="m 666.67425,826.03405 14.2858,198.57145 47.1428,4.2857 31.4286,12.8572 -41.4286,-41.4286 -4.2857,-67.14295 40,-44.2857 70,-8.5714 55.7143,20 2.8571,22.8571 15.7143,0 -5.7143,32.8572 5.7143,18.5714 31.4286,-40 22.8571,-11.4286 -8.5714,-48.5714 -14.2857,-1.4286 1.4286,-11.4285 -65.7143,-61.4286 -185.7143,7.1428 z"
       id="The_Crescent"
       inkscape:connector-curvature="0" />
    <path
       style="opacity:0.44800002;fill:none;fill-opacity:1;fill-rule:evenodd;stroke:#000000;stroke-width:1px;stroke-linecap:butt;stroke-linejoin:miter;stroke-opacity:1"
       d="m 739.53145,-93.965949 38.5714,31.4285 c 0,0 -7.1428,5.7143 -5.7143,11.4286 1.4286,5.7143 72.8572,34.2857 71.4286,44.2857003 -1.4286,10 -12.8571,24.2856997 -12.8571,24.2856997 l 50,64.2858 47.1428,0 c 0,0 1.4286,-35.7143 7.1429,-35.7143 5.7143,0 115.71435,102.857099 115.71435,102.857099 0,0 -15.7143,97.1429 -21.4286,95.7143 -5.7143,-1.4286 -51.42865,-20 -51.42865,-20 l 5.7143,-14.2857 -91.4286,-25.7143 -67.1428,-4.2857 -18.5715,-25.7143 0,-37.1429 -62.8571,-34.285699 -47.1429,34.285699 -50,-27.142799 -32.8571,-47.1429 -7.1429,-61.4285 55.7143,-51.4286 34.2857,-1.4286 8.5715,-15.7143 20,15.7143 z"
       id="Pipeline_Junction"
       inkscape:connector-curvature="0" />
    <path
       style="opacity:0.44800002;fill:none;fill-opacity:1;fill-rule:evenodd;stroke:#000000;stroke-width:1px;stroke-linecap:butt;stroke-linejoin:miter;stroke-opacity:1"
       d="m 702.38855,120.31975 37.1429,-28.571399 55.7143,24.285699 7.1428,51.4285 14.2857,18.5715 65.7143,7.1428 -64.2857,188.5715 15.7143,30 -29.6017,74.8565 104.4458,84.5526 -3.5468,36.2476 -117.0116,-91.3711 -81.4923,-56.5 11.1675,-86.6183 -69.6752,-34.0245 5.7143,-25.7143 1.4286,-57.1428 -84.28574,-55.7143 -10,-24.2857 -31.42857,-12.8572 25.71428,-60 60.00003,10 -51.4286,-67.142799 27.1429,-10 47.1428,61.4285 55.7143,29.999999 z"
       id="Terminal_Control"
       inkscape:connector-curvature="0"
       sodipodi:nodetypes="ccccccccccccccccccccccccccc" />
    <path
       style="opacity:0.44800002;fill:none;fill-opacity:1;fill-rule:evenodd;stroke:#000000;stroke-width:1px;stroke-linecap:butt;stroke-linejoin:miter;stroke-opacity:1"
       d="m 66.674292,174.60545 48.571428,-27.1429 9.97772,127.7487 82.87942,3.6799 35.71429,5.7143 c 0,0 5.71429,7.1429 0,7.1429 -5.71429,0 -42.85714,1.4285 -42.85714,1.4285 l 5.71428,21.4286 44.28572,-4.2857 -4.28572,12.8571 -38.57143,1.4286 0,18.5714 47.14286,12.8572 22.85714,0 -7.14285,8.5714 -50,7.1429 28.57143,10 -7.14286,8.5714 -18.57143,2.8571 -1.42857,18.5715 10,12.8571 c 0,0 -17.14286,52.8571 -21.42857,58.5714 -4.28572,5.7143 -15.71429,5.7143 -15.71429,5.7143 l 8.57143,-58.5714 -25.71429,-78.5714 -40,-32.8572 -64.285708,-50 -50,-82.8571 -21.4285702,-28.5715 32.8571402,-11.4285 2.85714,32.8571 8.57143,7.1429 z"
       id="Sump_View_Estates"
       inkscape:connector-curvature="0"
       sodipodi:nodetypes="cccccscccccccccccccccsccccccccccc" />
    <path
       style="opacity:0.44800002;fill:none;fill-opacity:1;fill-rule:evenodd;stroke:#000000;stroke-width:1px;stroke-linecap:butt;stroke-linejoin:miter;stroke-opacity:1"
       d="m 460.96001,48.891151 78.57143,55.714299 -20,64.2857 c 0,0 21.42857,7.1429 30,14.2857 8.57142,7.1429 21.42857,30 21.42857,30 l 45.71424,27.1429 c 0,0 1.4286,34.2857 -5.7142,38.5714 -7.1429,4.2857 -57.1429,17.1429 -57.1429,17.1429 l -21.42857,2.8571 -2.85714,51.4286 -12.85715,-2.8572 11.42857,-57.1428 -41.42857,44.2857 -11.42857,-4.2857 40,-54.2857 -48.57143,-24.2857 -17.14285,-2.8572 -27.14286,44.2857 -17.14286,-8.5714 35.71429,-32.8571 -28.57143,-11.4286 -20,31.4286 c 0,0 -24.28572,-4.2858 -22.85714,-10 1.42857,-5.7143 30,-41.4286 30,-41.4286 l -32.85715,-11.4286 11.42857,-20 -25.71428,0 73.21605,-79.8043 -64.96746,-55.749499 17.46569,-41.589 -20,-35.7143 28.57143,-4.2857 57.14286,41.4285 z"
       id="Spinward_Portal"
       inkscape:connector-curvature="0"
       sodipodi:nodetypes="cccsccscccccccccccccccsccccccccccc" />
    <path
       style="opacity:0.44800002;fill:none;fill-opacity:1;fill-rule:evenodd;stroke:#000000;stroke-width:1px;stroke-linecap:butt;stroke-linejoin:miter;stroke-opacity:1"
       d="m 212.38858,224.60545 115.71428,-95.7143 -18.57142,-28.5714 22.85714,-48.571399 24.28571,12.8571 51.42857,44.285699 -41.42857,47.1429 -30,-18.5715 -118.57143,95.7143 31.42858,5.7143 c 0,0 4.28571,14.2857 -1.42858,14.2857 -5.71428,0 -48.57142,4.2857 -48.57142,4.2857 l -58.57143,-1.4285 -1.42857,-67.1429 14.28571,-37.1428 15.71429,2.8571 7.14285,-25.7143 15.71429,11.4286 -11.42857,20 7.14285,22.8571 37.14286,-42.8571 14.28572,8.5714 -34.28572,42.8572 z"
       id="Shortways"
       inkscape:connector-curvature="0" />
    <path
       style="opacity:0.44800002;fill:none;fill-opacity:1;fill-rule:evenodd;stroke:#000000;stroke-width:1px;stroke-linecap:butt;stroke-linejoin:miter;stroke-opacity:1"
       d="m 642.38855,346.03405 62.8572,32.8571 -5.7143,80 -42.8572,-21.4286 -82.8571,177.1429 141.4286,77.1429 c 0,0 10,17.1428 -1.4286,18.5714 -11.4286,1.4286 -144.28571,7.1428 -144.28571,7.1428 l -48.57143,15.7143 -62.85715,-2.8571 -67.14285,-54.2857 40,-45.7143 30,12.8571 8.57143,-14.2857 22.85714,0 12.85714,-35.7143 30,2.8572 -34.28571,47.1428 18.57143,4.2857 34.28571,-47.1428 91.4286,-171.4286 -30,-17.1428 z"
       id="Longways"
       inkscape:connector-curvature="0"
       Longways="" />
    <path
       style="opacity:0.44800002;fill:none;fill-opacity:1;fill-rule:evenodd;stroke:#000000;stroke-width:1px;stroke-linecap:butt;stroke-linejoin:miter;stroke-opacity:1"
       d="m 460.96001,560.31975 -35.71429,70 -40,45.7143 -68.57143,-27.1429 c 0,0 -67.14285,10 -74.28571,11.4286 -7.14286,1.4286 -102.85714,47.1428 -102.85714,47.1428 0,0 60,-101.4285 61.42857,-107.1428 1.42857,-5.7143 50,-74.2857 50,-80 0,-5.7143 18.57143,-38.5714 18.57143,-38.5714 l 64.28571,-1.4286 c 0,0 -18.57143,48.5714 -12.85714,48.5714 5.71428,0 37.14285,15.7143 37.14285,15.7143 l 20,-27.1429 10,5.7143 -40,58.5715 20,18.5714 c 0,0 38.57143,-64.2858 44.28571,-64.2858 5.71429,0 15.71429,11.4286 15.71429,11.4286 l -32.85714,68.5715 11.42857,14.2857 37.14286,-74.2857 z"
       id="Thick_Fingers"
       inkscape:connector-curvature="0"
       sodipodi:nodetypes="ccccscssccscccccsccccc" />
    <path
       style="opacity:0.44800002;fill:none;fill-opacity:1;fill-rule:evenodd;stroke:#000000;stroke-width:1px;stroke-linecap:butt;stroke-linejoin:miter;stroke-opacity:1"
       d="m -43.325708,166.03405 -75.714282,30 -20,44.2857 -42.85715,20 -15.71428,100 -11.42857,94.2857 c 0,0 11.42857,24.2857 18.57143,24.2857 7.14285,0 181.4285718,-61.4286 181.4285718,-61.4286 0,0 8.57142995,11.4286 12.85714,17.1429 4.28571,5.7143 -28.5714298,68.5714 -28.5714298,68.5714 l -5.71428,38.5715 87.14285,0 88.571428,-22.8572 30,-35.7143 5.71429,-97.1428 -27.14286,-31.4286 -57.142858,-42.8571 -35.71428,-38.5715 -51.4285702,-90 -58.5714298,-48.5714 -27.14286,8.5714 z"
       id="Down_Town"
       inkscape:connector-curvature="0" />
    <path
       style="opacity:0.44800002;fill:none;fill-opacity:1;fill-rule:evenodd;stroke:#000000;stroke-width:1px;stroke-linecap:butt;stroke-linejoin:miter;stroke-opacity:1"
       d="m 371.73614,868.51445 16.16244,12.1218 23.2335,-23.2335 11.11168,-38.3858 35.35534,-4.0406 32.32488,1.0102 2.02031,24.2436 23.23351,3.0305 -2.02031,-21.2132 64.64976,-10.1016 1.01016,31.3148 19.19294,1.0101 -4.0407,-30.3045 35.3554,-6.061 3.0304,7.0711 20.2031,0 3.0305,137.3808 -321.22856,10.1015 -9.09137,-12.1219 38.3858,-46.467 z"
       id="Salty_Banks"
       inkscape:connector-curvature="0" />
    <path
       style="opacity:0.44800002;fill:none;fill-opacity:1;fill-rule:evenodd;stroke:#000000;stroke-width:1px;stroke-linecap:butt;stroke-linejoin:miter;stroke-opacity:1"
       d="m 329.30973,971.55005 334.36052,-9.0914 2.0203,66.67005 -74.7513,45.4569 -63.63962,42.4264 -42.42641,10.1015 -9.09137,6.061 -22.22336,-13.132 -39.39595,-14.1422 -80.8122,-3.0304 -51.51778,38.3858 -102.02541,4.0406 -7.07107,-49.4975 48.48733,1.0102 98.99495,-15.1523 13.13198,-1.0102 z"
       id="Rimward_Ho!"
       inkscape:connector-curvature="0" />
    <path
       style="opacity:0.44800002;fill:none;fill-opacity:1;fill-rule:evenodd;stroke:#000000;stroke-width:1px;stroke-linecap:butt;stroke-linejoin:miter;stroke-opacity:1"
       d="m 733.37075,744.26565 0,26.264 -300.01531,-1.0102 -41.41625,66.6701 -10.10153,28.2843 -15.15229,-4.0406 c 0,0 -22.22335,42.4264 -26.26396,42.4264 -4.04061,0 -57.5787,-39.396 -57.5787,-39.396 l 105.05587,-117.1777 17.17259,-29.2944 42.42641,18.1828 68.69037,7.071 55.55839,-18.1827 88.89341,0 c 0,0 -8.0812,15.1523 3.0305,20.203 11.1116,5.0508 69.7005,0 69.7005,0 z"
       id="The_Jaws"
       inkscape:connector-curvature="0" />
    <path
       style="opacity:0.44800002;fill:none;fill-opacity:1;fill-rule:evenodd;stroke:#000000;stroke-width:1px;stroke-linecap:butt;stroke-linejoin:miter;stroke-opacity:1"
       d="m 1210.9601,401.74835 161.4285,-40 c 0,0 22.8572,51.4285 22.8572,57.1428 0,5.7143 -58.5715,47.1429 -58.5715,47.1429 l -14.2857,42.8571 -22.8571,28.5714 -14.2857,-17.1428 -34.2857,-20 35.7142,-12.8572 z"
       id="The_Trash_Cliffs"
       inkscape:connector-curvature="0" />
    <path
       style="opacity:0.44800002;fill:none;fill-opacity:1;fill-rule:evenodd;stroke:#000000;stroke-width:1px;stroke-linecap:butt;stroke-linejoin:miter;stroke-opacity:1"
       d="m 1033.8172,283.17685 -54.28575,155.7143 41.42865,14.2857 87.1428,-68.5714 -12.8571,-67.1429 -34.2857,-68.5714 -22.8572,12.8572 -47.14285,-20 -1.4286,8.5714 55.71435,24.2857 z"
       id="Heart_of_Iron"
       inkscape:connector-curvature="0" />
    <path
       style="opacity:0.44800002;fill:none;fill-opacity:1;fill-rule:evenodd;stroke:#000000;stroke-width:1px;stroke-linecap:butt;stroke-linejoin:miter;stroke-opacity:1"
       d="m 1353.8172,253.17685 c 0,0 30.7143,-0.7143 37.1429,2.1429 6.4285,2.8571 107.8571,66.4286 107.8571,66.4286 l 34.2857,-47.8572 20,-60.7143 c 0,0 -36.4286,-32.8571 -39.2857,-32.8571 -2.8571,0 -57.8571,-9.2857 -60.7143,-8.5714 -2.8571,0.7142 -61.4286,40 -61.4286,40 l -24.2857,-4.2858 -12.8571,28.5715 z"
       id="Lumpen_Isle"
       inkscape:connector-curvature="0" />
    <path
       style="opacity:0.44800002;fill:none;fill-opacity:1;fill-rule:evenodd;stroke:#000000;stroke-width:1px;stroke-linecap:butt;stroke-linejoin:miter;stroke-opacity:1"
       d="m 43.102862,756.03405 c 2.85715,0 45.71429,-36.4286 45.71429,-36.4286 0,0 53.571428,-8.5714 56.428568,-8.5714 2.85714,0 99.28572,-33.5715 99.28572,-33.5715 l 18.57143,-9.2857 7.14285,7.8572 -95.71428,110.7143 -72.85715,106.4285 -6.428568,-125.7143 z"
       id="Halls_of_Eternal_Worship"
       inkscape:connector-curvature="0" />
    <path
       style="opacity:0.44800002;fill:none;fill-opacity:1;fill-rule:evenodd;stroke:#000000;stroke-width:1px;stroke-linecap:butt;stroke-linejoin:miter;stroke-opacity:1"
       d="m 274.53144,681.03405 c 3.57143,-0.7143 39.28571,-27.1429 39.28571,-27.1429 l 76.42857,40 10.71429,23.5714 -60,72.1429 -64.28572,67.8571 -81.42857,-71.4285 -11.42857,14.2857 c 0,0 -9.28571,-0.7143 -7.14286,-4.2857 2.14286,-3.5715 97.85715,-115 97.85715,-115 z"
       id="Halls_of_Infinite_Worship"
       inkscape:connector-curvature="0" />
    <path
       style="opacity:0.44800002;fill:none;fill-opacity:1;fill-rule:evenodd;stroke:#000000;stroke-width:1px;stroke-linecap:butt;stroke-linejoin:miter;stroke-opacity:1"
       d="m 155.24572,836.03405 c 0,0 147.85715,130.7143 147.85715,127.8571 0,-2.8571 34.48005,-42.9289 34.48005,-42.9289 l -138.76577,-122.0711 -13.57143,8.5714 -16.42857,1.4286 -15.71429,21.4286 z"
       id="Administratrum_Barracks"
       inkscape:connector-curvature="0"
       sodipodi:nodetypes="cscccccc" />
    <path
       style="opacity:0.44800002;fill:none;fill-opacity:1;fill-rule:evenodd;stroke:#000000;stroke-width:1px;stroke-linecap:butt;stroke-linejoin:miter;stroke-opacity:1"
       d="m 147.38858,841.74835 -42.14286,60.7142 c 0,0 67.14286,156.42865 67.85714,153.57155 0.71429,-2.8572 125.71429,-90.00005 125.71429,-90.00005 z"
       id="Sunken_Sump_Slums"
       inkscape:connector-curvature="0" />
    <path
       style="opacity:0.44800002;fill:none;fill-opacity:1;fill-rule:evenodd;stroke:#000000;stroke-width:1px;stroke-linecap:butt;stroke-linejoin:miter;stroke-opacity:1"
       d="m 170.96001,1064.6055 c 2.85714,-1.4286 129.28571,-95.00005 132.85714,-95.00005 3.57143,0 18.57143,-7.1429 18.57143,-4.2857 0,2.8571 0,105.71435 0,105.71435 l -145.71429,15 z"
       id="Grissom_Corpse_Starch_Processing"
       inkscape:connector-curvature="0" />
    <path
       style="opacity:0.44800002;fill:none;fill-opacity:1;fill-rule:evenodd;stroke:#000000;stroke-width:1px;stroke-linecap:butt;stroke-linejoin:miter;stroke-opacity:1"
       d="m 28.817152,764.60545 59.28571,6.4286 c 0,0 1.42858,120.7143 2.85715,125.7143 1.42857,5 71.428568,170.00005 71.428568,170.00005 l 6.42857,32.8571 2.85714,37.1429 -97.142848,8.5714 -85.71429,-172.14295 c 0,0 9.2857098,-77.8571 9.2857098,-80.7143 0,-2.8571 40.7142902,-107.1428 40.7142902,-107.1428 l -14.28571,-0.7143 z"
       id="Sidings"
       inkscape:connector-curvature="0" />
    <path
       style="opacity:0.44800002;fill:none;fill-opacity:1;fill-rule:evenodd;stroke:#000000;stroke-width:1px;stroke-linecap:butt;stroke-linejoin:miter;stroke-opacity:1"
       d="m 65.960012,1141.7484 c 0,0 -93.57143,-167.14295 -93.57143,-170.71435 0,-3.5715 21.4285698,-100 21.4285698,-100 l 34.2857102,-76.4286 -10,-2.8571 50,-90 -71.4285702,-7.1429 -33.5714298,74.2857 -34.28571,142.1429 -10,58.5714 52.85714,98.57145 72.14286,79.2857 z"
       id="Arterial_Passage_M55b"
       inkscape:connector-curvature="0" />
    <path
       style="opacity:0.44800002;fill:none;fill-opacity:1;fill-rule:evenodd;stroke:#000000;stroke-width:1px;stroke-linecap:butt;stroke-linejoin:miter;stroke-opacity:1"
       d="m 30.245722,556.03405 c 3.57143,0 94.999998,-16.4286 94.999998,-16.4286 l -34.999998,108.5714 9.28572,35.7143 26.785678,-1.7131 27.97303,-5.8883 -15.20382,17.4403 -52.412038,13.0183 c 0,0 -15,12.1428 -15,9.2857 0,-2.8572 15,-22.1429 10.71429,-20 -4.28572,2.1428 -86.4285702,-5 -86.4285702,-5 l -103.5714318,-17.1429 -14.28572,-20 c 0,0 85.000002,17.1429 87.857152,17.1429 2.85714,0 48.57143,-0.7143 48.57143,-0.7143 l 29.28571,-78.5714 -22.14286,-1.4286 z"
       id="The_Spin_Road"
       inkscape:connector-curvature="0"
       sodipodi:nodetypes="ccccccccsccccscccc" />
    <path
       style="opacity:0.44800002;fill:none;fill-opacity:1;fill-rule:evenodd;stroke:#000000;stroke-width:1px;stroke-linecap:butt;stroke-linejoin:miter;stroke-opacity:1"
       d="m 115.24572,676.74835 c 0,0 16.42857,-2.8572 17.85714,-8.5715 1.42857,-5.7143 82.14286,-167.8571 82.14286,-167.8571 l -35,5 -49.28571,45 -30.71429,92.1428 3.57143,28.5715 z"
       id="The_Stink"
       inkscape:connector-curvature="0"
       sodipodi:nodetypes="cscccccc" />
    <path
       style="opacity:0.44800002;fill:none;fill-opacity:1;fill-rule:evenodd;stroke:#000000;stroke-width:1px;stroke-linecap:butt;stroke-linejoin:miter;stroke-opacity:1"
       d="m -470.46856,633.17685 c 3.57143,-1.4285 305,-110 305,-110 l 27.14285,80 -153.57143,52.8572 -54.99999,59.2857 -51.42858,-11.4286 -13.57142,-36.4286 -40.71429,10 -21.42857,-45 z"
       id="Precinct_22b-H"
       inkscape:connector-curvature="0" />
    <path
       style="opacity:0.44800002;fill:none;fill-opacity:1;fill-rule:evenodd;stroke:#000000;stroke-width:1px;stroke-linecap:butt;stroke-linejoin:miter;stroke-opacity:1"
       d="m -174.75428,482.46255 35,82.1429 52.857142,-16.4286 51.42858,3.5715 -1.42858,-52.8572 34.9999998,-60.7143 -10.7142798,-15 -108.571432,41.4286 -55,15 z"
       id="Data-hive_Epsilon-Q"
       inkscape:connector-curvature="0" />
    <path
       style="opacity:0.44800002;fill:none;fill-opacity:1;fill-rule:evenodd;stroke:#000000;stroke-width:1px;stroke-linecap:butt;stroke-linejoin:miter;stroke-opacity:1"
       d="m -178.32571,517.46255 c -5.71428,-8.5714 -29.28571,-42.8571 -29.28571,-42.8571 l -17.85714,-36.4286 c 0,0 -35,20.7143 -40,22.1429 -5,1.4286 -93.57143,26.4286 -93.57143,26.4286 0,0 -46.42857,24.2857 -48.57143,27.1428 -2.14286,2.8572 -90.71429,47.1429 -90.71429,47.1429 l 29.28572,66.4285 z"
       id="Tar_Sands"
       inkscape:connector-curvature="0" />
    <path
       style="opacity:0.44800002;fill:none;fill-opacity:1;fill-rule:evenodd;stroke:#000000;stroke-width:1px;stroke-linecap:butt;stroke-linejoin:miter;stroke-opacity:1"
       d="m -274.75428,659.60545 c 4.28572,-2.8571 145,-47.8571 145,-47.8571 0,0 -12.85714,-43.5715 -10,-43.5715 2.85714,0 57.142862,-12.1428 57.142862,-12.1428 l 50.71428,2.8571 5,-11.4286 47.14286,6.4286 -9.28571,35.7143 21.42857,7.8571 c 0,0 -25.7142902,62.8572 -27.1428602,65.7143 -1.42857,2.8572 -31.4285698,3.5715 -31.4285698,3.5715 l -108.571432,-22.8572 c 0,0 4.28572,6.4286 0.71429,7.8572 -3.57143,1.4285 -140.71429,7.8571 -140.71429,7.8571 z"
       id="Guild_Districts"
       inkscape:connector-curvature="0" />
    <path
       style="opacity:0.44800002;fill:none;fill-opacity:1;fill-rule:evenodd;stroke:#000000;stroke-width:1px;stroke-linecap:butt;stroke-linejoin:miter;stroke-opacity:1"
       d="m -244.75428,988.89115 c 10,-8.5714 52.14286,-52.1428 52.14286,-52.1428 0,0 -20.71429,-15 -17.85714,-17.1429 2.85714,-2.1429 25,-18.5714 25,-18.5714 l 15.71428,15.7143 41.42857,-43.5715 c 0,0 11.42857,5 8.57143,7.8572 -2.85714,2.8571 -31.42857,26.4285 -28.57143,26.4285 2.85715,0 27.14286,18.5715 27.14286,18.5715 l 43.571432,-35 c 0,0 -6.42857,67.8571 -9.28572,69.2857 -2.85714,1.4286 -52.857142,31.4286 -52.857142,31.4286 0,0 -37.85714,45.00005 -41.42857,47.14285 -3.57143,2.1429 -43.57143,26.4286 -43.57143,26.4286 l -65.71428,-5.7143 -17.14286,-19.2857 z"
       id="The_Bileworks"
       inkscape:connector-curvature="0" />
    <path
       style="opacity:0.44800002;fill:none;fill-opacity:1;fill-rule:evenodd;stroke:#000000;stroke-width:1px;stroke-linecap:butt;stroke-linejoin:miter;stroke-opacity:1"
       d="m -239.75428,684.60545 32.14286,100 34.28571,37.1429 103.571432,45 22.14286,-108.5715 25.71428,-55.7143 -88.571422,-20 c 0,0 -19.28572,-17.8571 -22.14286,-17.1428 -2.85714,0.7143 -114.28572,3.5714 -114.28572,3.5714 z"
       id="The_Bleeding_Heart"
       inkscape:connector-curvature="0" />
    <path
       style="opacity:0.44800002;fill:none;fill-opacity:1;fill-rule:evenodd;stroke:#000000;stroke-width:1px;stroke-linecap:butt;stroke-linejoin:miter;stroke-opacity:1"
       d="m -401.89713,783.17685 c 1.42857,-2.8571 111.42857,-116.4285 114.28571,-116.4285 2.85714,0 35.71428,0.7142 35.71428,0.7142 l 34.28572,118.5715 40,37.1428 52.14286,25.7143 c 0,0 -37.85715,58.5714 -41.42858,58.5714 -3.57142,0 -20.71428,-17.8571 -20.71428,-17.8571 l -35,26.4286 c 0,0 20,18.5714 16.42857,20.7143 -3.57143,2.1428 -32.14286,39.2857 -32.14286,39.2857 l -85,-110 c 0,0 -17.85714,-18.5715 -20.71428,-22.1429 -2.85714,-3.5714 -57.85714,-60.7143 -57.85714,-60.7143 z"
       id="Backside_Depot"
       inkscape:connector-curvature="0" />
    <rect
       style="opacity:0.20700001;fill:none;fill-opacity:1;stroke:#000000;stroke-width:2;stroke-linecap:round;stroke-miterlimit:4;stroke-dasharray:none;stroke-dashoffset:0;stroke-opacity:1"
       id="Map_Bounds"
       width="2161.7266"
       height="1299.0562"
       x="-543.4621"
       y="-149.71927" />
  </g>
</svg>
